<svg xmlns="http://www.w3.org/2000/svg" viewBox="0 0 300 300"><defs><style>.cls-1{fill:#f7d7a9;}.cls-2{fill:#9a5a79;}.cls-3{fill:#49250a;}.cls-4{fill:#b59767;}.cls-5{fill:#e2b985;}.cls-6{fill:#0c62a3;}.cls-7{fill:#3884d6;}.cls-8{fill:#5c4a37;}.cls-9{fill:#a11d28;}.cls-10{fill:#c93131;}.cls-11{fill:#4f3205;}.cls-12{fill:#7a4909;}.cls-13{fill:#cc7d7d;}.cls-14{fill:#e59191;}</style></defs><title>BACK</title><g id="back"><circle class="cls-1" cx="151.17" cy="117.5" r="78.03"/><path class="cls-2" d="M276.76,263.27V300H25.59V263.27c0-40.23,56.23-86.43,125.59-86.43S276.76,223,276.76,263.27Z"/><path class="cls-3" d="M229.21,117.5c0,43.1-15.66,89.32-15.66,89.32L201,195.53l-12.54,11.29-12.54-11-12.54,11-12.54-11-12.54,11-12.54-11-12.54,11-12.54-11-12.54,11s-15-68.61-15-89.32a78,78,0,1,1,156.06,0Z"/><g id="boomerang"><g id="boomerang-2" data-name="boomerang"><path class="cls-4" d="M89.67,185.1c-9,13.49,91.17,87.48,75,124.72-11.53,26.49-43.94,52.77-44.23,70.15-.18,13.52,58.08-12.11,75.65-61.81C214.86,264.79,100.89,168.25,89.67,185.1Z"/><path class="cls-5" d="M89.67,185.1c-4.83,7.57,24.25,34.73,48,63.67,18.7,22.76,34.14,46.64,27,62.94-11.46,26.29-44.21,56.17-44,69.54.15,11.28,58.68-11.65,75.44-61.2,7.74-22.86-12.75-56-37.83-83.8C129.07,203.91,93.72,178.67,89.67,185.1Z"/></g><g id="boomerang-3" data-name="boomerang"><path class="cls-6" d="M148.27,225.68l2.79-3.54a241.61,241.61,0,0,1,25.64,30.2l-2.38,3.34,0,.05c-4.89-6.65-10.35-13.22-16-19.52C155,232.61,151.66,229.12,148.27,225.68Z"/><path class="cls-7" d="M130.05,239.77s.23-.08.66-.19a28.57,28.57,0,0,0,7-3.92c4.44-3.23,10.59-9.95,10.59-9.95,3.39,3.44,6.73,6.94,9.95,10.59,5.67,6.3,11.13,12.87,16,19.52a37.16,37.16,0,0,1-8.66,8.76A41.12,41.12,0,0,1,155,270.71a6.37,6.37,0,0,0-.84.31,247.37,247.37,0,0,0-16.42-22.14C135.19,245.75,132.6,242.74,130.05,239.77Z"/></g><path class="cls-8" d="M127.8,237.1l.6-.23a38.83,38.83,0,0,0,6.89-3.85c4.23-3,10.4-9.92,10.4-9.92l2.73-3.58,1.52,1.5,1.18,1.16h0l-2.79,3.54s-6.16,6.72-10.59,9.95a31.13,31.13,0,0,1-7,3.92,4,4,0,0,1-.66.19l-.41-.48Z"/><path class="cls-8" d="M154.12,270.92a3.12,3.12,0,0,0,.84-.31,46.13,46.13,0,0,0,10.67-6.11,35.11,35.11,0,0,0,8.66-8.76l0-.05,2.38-3.34.07.14,1.88,2.72-2.32,3.38h0a39.63,39.63,0,0,1-8.56,8.41,54.18,54.18,0,0,1-11.12,6.37c-.51.21-.74.29-.74.29l-.92-1.39Z"/></g><g id="boomerang-4" data-name="boomerang"><g id="boomerang-5" data-name="boomerang"><path class="cls-4" d="M201.38,168.16c-16.2.71-16.71,125.24-56.28,134.23-28.19,6.35-68.54-4.27-82.73,5.76-11,7.84,44.09,39.71,94.57,24.51C211.06,316.24,221.6,167.26,201.38,168.16Z"/><path class="cls-5" d="M201.38,168.16c-9,.58-13.68,40.09-23,76.36-7.31,28.53-17.46,55.1-34.81,59-28,6.28-71.44-2.48-82.11,5.57-9,6.79,44.07,40.46,93.95,24.7,23-7.27,37.65-43.37,45.26-80C209.48,211.06,209,167.63,201.38,168.16Z"/></g><g id="boomerang-6" data-name="boomerang"><path class="cls-9" d="M203.27,239.41l4.5.16a241.61,241.61,0,0,1-9.22,38.53l-4.1.06h-.07c2.47-7.87,4.55-16.16,6.28-24.46C201.65,248.94,202.49,244.18,203.27,239.41Z"/><path class="cls-10" d="M181.13,233s.2.14.54.42a28.57,28.57,0,0,0,7.31,3.35c5.22,1.67,14.29,2.67,14.29,2.67-.78,4.76-1.62,9.53-2.67,14.29-1.73,8.3-3.81,16.59-6.28,24.46a37.16,37.16,0,0,1-12.19-1.81,41.12,41.12,0,0,1-11.24-5,6.37,6.37,0,0,0-.74-.49,247.37,247.37,0,0,0,8.16-26.33C179.34,240.72,180.24,236.85,181.13,233Z"/></g><path class="cls-8" d="M181.95,229.64l.54.35a38.83,38.83,0,0,0,7.17,3.28c4.88,1.67,14.15,2.53,14.15,2.53l4.5.09L208,238l-.24,1.63h0l-4.5-.16s-9.06-1-14.29-2.67a31.13,31.13,0,0,1-7.31-3.35,4,4,0,0,1-.54-.42l.15-.61C181.5,231.48,181.73,230.59,181.95,229.64Z"/><path class="cls-8" d="M170.22,270.86a3.12,3.12,0,0,0,.74.49,46.13,46.13,0,0,0,11.24,5,35.11,35.11,0,0,0,12.19,1.81h.07l4.1-.06-.07.14-1.08,3.12-4.1.13h0a39.63,39.63,0,0,1-11.84-1.94,54.18,54.18,0,0,1-11.71-5.21c-.47-.28-.67-.42-.67-.42l.58-1.56Z"/></g><path class="cls-11" d="M63.59,202.38s53.28,82.16,110.71,104.44,102.46,21.82,102.46,21.82v15s-68.44-1.2-106.61-19.15C95.82,289.55,49.1,214.2,49.1,214.2Z"/><path class="cls-12" d="M62.15,203.55S115.42,285.71,172.85,308,275.32,329.8,275.32,329.8v15s-68.44-1.2-106.61-19.15c-74.33-34.95-121-110.29-121-110.29Z"/><path class="cls-13" d="M28.24,84.14c0,17.73,77.72,30.45,123.63,30.45S274.6,98.68,274.6,84.14,200.77,66.29,151.87,66.41C103.22,66.53,28.24,69.14,28.24,84.14Z"/><path class="cls-14" d="M78.09,76.36c0,11.53,43.75,18.9,73.62,18.9s70-8.53,70-18-18.55-60.45-71.82-60.45C89,16.82,78.09,66.6,78.09,76.36Z"/></g></svg>