<svg id="Layer_1" data-name="Layer 1" xmlns="http://www.w3.org/2000/svg" xmlns:xlink="http://www.w3.org/1999/xlink" viewBox="0 0 800 600"><defs><style>.cls-1{fill:url(#linear-gradient);}.cls-2{opacity:0.7;}.cls-3{fill:url(#linear-gradient-2);}.cls-4{fill:url(#linear-gradient-3);}.cls-5{fill:url(#linear-gradient-4);}.cls-6{fill:url(#linear-gradient-5);}.cls-7{fill:url(#linear-gradient-6);}.cls-8{fill:url(#linear-gradient-7);}.cls-9{fill:url(#linear-gradient-8);}.cls-10{fill:url(#linear-gradient-9);}.cls-11{fill:url(#linear-gradient-10);}.cls-12{fill:url(#linear-gradient-11);}.cls-13{fill:url(#linear-gradient-12);}.cls-14{fill:url(#linear-gradient-13);}.cls-15{fill:url(#linear-gradient-14);}.cls-16{fill:url(#linear-gradient-15);}.cls-17,.cls-18{opacity:0.5;}.cls-17{fill:url(#linear-gradient-16);}.cls-18{fill:url(#linear-gradient-17);}.cls-19{opacity:0.6;fill:url(#linear-gradient-18);}</style><linearGradient id="linear-gradient" x1="400" x2="400" y2="600" gradientUnits="userSpaceOnUse"><stop offset="0" stop-color="#8fe1ed"/><stop offset="0.16" stop-color="#9fe2ec"/><stop offset="0.48" stop-color="#b7e4ea"/><stop offset="0.76" stop-color="#c6e5e8"/><stop offset="1" stop-color="#cbe5e8"/></linearGradient><linearGradient id="linear-gradient-2" x1="648.19" y1="259.01" x2="648.19" y2="572.21" gradientUnits="userSpaceOnUse"><stop offset="0" stop-color="#94e0be"/><stop offset="1" stop-color="#3d9b89"/></linearGradient><linearGradient id="linear-gradient-3" x1="332.51" y1="259.01" x2="332.51" y2="572.21" gradientUnits="userSpaceOnUse"><stop offset="0" stop-color="#7ad2b8"/><stop offset="1" stop-color="#3d8889"/></linearGradient><linearGradient id="linear-gradient-4" x1="701.25" y1="276.24" x2="701.25" y2="629.06" gradientTransform="translate(-262.8) scale(0.79 1)" gradientUnits="userSpaceOnUse"><stop offset="0" stop-color="#6fccbe"/><stop offset="1" stop-color="#3d7d72"/></linearGradient><linearGradient id="linear-gradient-5" x1="366.61" y1="276.24" x2="366.61" y2="629.06" gradientTransform="translate(-262.8) scale(0.79 1)" gradientUnits="userSpaceOnUse"><stop offset="0.01" stop-color="#7ab9b0"/><stop offset="1" stop-color="#3d7f6e"/></linearGradient><linearGradient id="linear-gradient-6" x1="453.87" y1="314.68" x2="453.87" y2="659.68" gradientTransform="matrix(-0.73, 0, 0, 1, 1006.78, 0)" xlink:href="#linear-gradient-4"/><linearGradient id="linear-gradient-7" x1="136.96" y1="314.68" x2="136.96" y2="659.68" gradientTransform="matrix(-0.73, 0, 0, 1, 1006.78, 0)" xlink:href="#linear-gradient-5"/><linearGradient id="linear-gradient-8" x1="268.39" y1="280.75" x2="268.39" y2="632.61" xlink:href="#linear-gradient-2"/><linearGradient id="linear-gradient-9" x1="120.34" y1="280.75" x2="120.34" y2="632.61" gradientUnits="userSpaceOnUse"><stop offset="0" stop-color="#7ac7be"/><stop offset="1" stop-color="#3d8889"/></linearGradient><linearGradient id="linear-gradient-10" x1="728.35" y1="280.27" x2="728.35" y2="633.09" xlink:href="#linear-gradient-2"/><linearGradient id="linear-gradient-11" x1="520.21" y1="280.27" x2="520.21" y2="633.09" xlink:href="#linear-gradient-3"/><linearGradient id="linear-gradient-12" x1="1311.52" y1="327.72" x2="1311.52" y2="680.54" gradientTransform="matrix(-0.8, 0, 0, 1, 1301.81, 0)" xlink:href="#linear-gradient-4"/><linearGradient id="linear-gradient-13" x1="1059.77" y1="327.72" x2="1059.77" y2="680.54" gradientTransform="matrix(-0.8, 0, 0, 1, 1301.81, 0)" xlink:href="#linear-gradient-5"/><linearGradient id="linear-gradient-14" x1="1689.57" y1="346.97" x2="1689.57" y2="699.79" gradientTransform="matrix(-0.8, 0, 0, 1, 1301.81, 0)" xlink:href="#linear-gradient-4"/><linearGradient id="linear-gradient-15" x1="1437.81" y1="346.97" x2="1437.81" y2="699.79" gradientTransform="matrix(-0.8, 0, 0, 1, 1301.81, 0)" xlink:href="#linear-gradient-5"/><linearGradient id="linear-gradient-16" x1="165.12" y1="142.94" x2="165.12" y2="51.77" gradientUnits="userSpaceOnUse"><stop offset="0" stop-color="#61bac1"/><stop offset="0.1" stop-color="#7ac5cb"/><stop offset="0.31" stop-color="#a9d9dd"/><stop offset="0.52" stop-color="#ceeaec"/><stop offset="0.7" stop-color="#e9f5f6"/><stop offset="0.87" stop-color="#f9fdfd"/><stop offset="1" stop-color="#fff"/></linearGradient><linearGradient id="linear-gradient-17" x1="641.97" y1="207.37" x2="641.97" y2="111.55" xlink:href="#linear-gradient-16"/><linearGradient id="linear-gradient-18" x1="637.32" y1="180.86" x2="637.32" y2="111.55" gradientTransform="matrix(-0.95, 0, 0, 1, 879.5, 0)" xlink:href="#linear-gradient-16"/></defs><title>background</title><rect id="Sky" class="cls-1" width="800" height="600"/><g id="mtn" class="cls-2"><polygon class="cls-3" points="509.19 259.01 411.8 572.21 884.59 568.37 509.19 259.01"/><polygon class="cls-4" points="155.84 534.77 411.8 572.21 509.19 259.01 155.84 534.77"/></g><g id="mtn-2" data-name="mtn" class="cls-2"><polygon class="cls-5" points="165.31 276.24 130.96 629.06 456.66 614.13 165.31 276.24"/><polygon class="cls-6" points="-108.92 577.43 130.96 629.06 165.31 276.24 -108.92 577.43"/></g><g id="mtn-3" data-name="mtn" class="cls-2"><polygon class="cls-7" points="768.84 314.68 826.06 659.68 527.89 644.75 768.84 314.68"/><polygon class="cls-8" points="1045.67 608.05 826.06 659.68 768.84 314.68 1045.67 608.05"/></g><g id="mtn-4" data-name="mtn"><polygon class="cls-9" points="250.61 280.75 103.52 632.61 433.27 632.61 250.61 280.75"/><polygon class="cls-10" points="-9.92 595.92 103.52 632.61 250.61 280.75 -9.92 595.92"/></g><g id="mtn-5" data-name="mtn"><polygon class="cls-11" points="627.66 280.27 600.74 633.09 855.96 618.16 627.66 280.27"/><polygon class="cls-12" points="412.77 581.46 600.74 633.09 627.66 280.27 412.77 581.46"/></g><g id="mtn-6" data-name="mtn"><polygon class="cls-13" points="345.55 327.72 371.72 680.54 123.59 665.6 345.55 327.72"/><polygon class="cls-14" points="554.47 628.91 371.72 680.54 345.55 327.72 554.47 628.91"/></g><g id="mtn-7" data-name="mtn"><polygon class="cls-15" points="41.69 346.97 67.86 699.79 -180.27 684.85 41.69 346.97"/><polygon class="cls-16" points="250.61 648.16 67.86 699.79 41.69 346.97 250.61 648.16"/></g><path class="cls-17" d="M74,142.94s-16.35-10.71-11.07-26.82c5.34-16.3,28-22.15,28-22.15S85,77.87,101.81,69.82c18.25-8.74,32,4.65,32,4.65S147.89,45,184.17,53.23c31.38,7.14,31.29,31.89,31.29,31.89s12.63-12.25,26.55-3.6c14.33,8.91,7,26,7,26s19.44.4,19.44,16.46c0,16.89-15.84,18.94-15.84,18.94Z"/><path class="cls-18" d="M569.78,207.37H718.27s13.59-12,9.21-30c-4.44-18.21-20.71-17.94-20.71-17.94s4.87-18-9.1-27C677.31,119.32,664.2,137,664.2,137s-14-33.07-44.13-23.85c-33.27,10.17-25.77,38.16-25.77,38.16s-26.54-9-36.07,16C548.26,193.51,569.78,207.37,569.78,207.37Z"/><path class="cls-19" d="M335.63,180.86H209s-11.6-8.72-7.86-21.85c3.78-13.28,17.67-13.07,17.67-13.07s-4.16-13.12,7.77-19.68c12.94-7.12,22.72,3.79,22.72,3.79s10-24,35.69-17.31c22.26,5.82,22.19,26,22.19,26s19.44-6.76,30.51,10S335.63,180.86,335.63,180.86Z"/></svg>