<svg xmlns="http://www.w3.org/2000/svg" xmlns:xlink="http://www.w3.org/1999/xlink" viewBox="0 0 300 300"><defs><style>.cls-1,.cls-10,.cls-11,.cls-12,.cls-2,.cls-3,.cls-4,.cls-5,.cls-6,.cls-7,.cls-8,.cls-9{opacity:0.3;}.cls-1{fill:url(#linear-gradient);}.cls-2{fill:url(#linear-gradient-2);}.cls-3{fill:url(#linear-gradient-3);}.cls-4{fill:url(#linear-gradient-4);}.cls-5{fill:url(#linear-gradient-5);}.cls-6{fill:url(#linear-gradient-6);}.cls-7{fill:url(#linear-gradient-7);}.cls-8{fill:url(#linear-gradient-8);}.cls-9{fill:url(#linear-gradient-9);}.cls-10{fill:url(#linear-gradient-10);}.cls-11{fill:url(#linear-gradient-11);}.cls-12{fill:url(#linear-gradient-12);}.cls-13{fill:#e4bebd;}.cls-14{fill:#cec1a3;}.cls-15{fill:url(#linear-gradient-13);}.cls-16{fill:url(#linear-gradient-14);}.cls-17{fill:#fbcccc;}.cls-18{fill:#eadebb;}.cls-19{fill:#da8483;}.cls-20{fill:url(#linear-gradient-15);}.cls-21{fill:#dbbd7a;}.cls-22{fill:#ffde8d;}.cls-23{fill:#fff;}</style><linearGradient id="linear-gradient" x1="76.35" y1="33.14" x2="76.35" y2="146.51" gradientUnits="userSpaceOnUse"><stop offset="0" stop-color="#cec1a3" stop-opacity="0"/><stop offset="0.01" stop-color="#cdbfa2" stop-opacity="0.02"/><stop offset="0.11" stop-color="#c0a598" stop-opacity="0.28"/><stop offset="0.22" stop-color="#b48e8f" stop-opacity="0.5"/><stop offset="0.34" stop-color="#ab7b87" stop-opacity="0.68"/><stop offset="0.47" stop-color="#a36c81" stop-opacity="0.82"/><stop offset="0.61" stop-color="#9e627d" stop-opacity="0.92"/><stop offset="0.77" stop-color="#9b5c7b" stop-opacity="0.98"/><stop offset="1" stop-color="#9a5a7a"/></linearGradient><linearGradient id="linear-gradient-2" x1="98.47" y1="33.14" x2="98.47" y2="146.51" xlink:href="#linear-gradient"/><linearGradient id="linear-gradient-3" x1="116.47" y1="45.69" x2="116.47" y2="146.51" xlink:href="#linear-gradient"/><linearGradient id="linear-gradient-4" x1="39.9" y1="128.03" x2="39.9" y2="219.45" gradientUnits="userSpaceOnUse"><stop offset="0" stop-color="#cec1a3" stop-opacity="0"/><stop offset="0.03" stop-color="#cfbca0" stop-opacity="0.09"/><stop offset="0.12" stop-color="#d2af99" stop-opacity="0.3"/><stop offset="0.22" stop-color="#d4a393" stop-opacity="0.49"/><stop offset="0.32" stop-color="#d69a8e" stop-opacity="0.65"/><stop offset="0.42" stop-color="#d7928a" stop-opacity="0.77"/><stop offset="0.53" stop-color="#d88c87" stop-opacity="0.87"/><stop offset="0.65" stop-color="#d98785" stop-opacity="0.95"/><stop offset="0.8" stop-color="#da8583" stop-opacity="0.99"/><stop offset="1" stop-color="#da8483"/></linearGradient><linearGradient id="linear-gradient-5" x1="284.96" y1="64.73" x2="284.96" y2="157.18" gradientUnits="userSpaceOnUse"><stop offset="0" stop-color="#cec1a3" stop-opacity="0"/><stop offset="0.05" stop-color="#d1c3a4" stop-opacity="0.14"/><stop offset="0.14" stop-color="#d6c5a4" stop-opacity="0.34"/><stop offset="0.23" stop-color="#dbc8a5" stop-opacity="0.52"/><stop offset="0.33" stop-color="#dfcaa6" stop-opacity="0.67"/><stop offset="0.43" stop-color="#e2cba6" stop-opacity="0.79"/><stop offset="0.54" stop-color="#e4cca7" stop-opacity="0.88"/><stop offset="0.66" stop-color="#e6cda7" stop-opacity="0.95"/><stop offset="0.8" stop-color="#e7cea7" stop-opacity="0.99"/><stop offset="1" stop-color="#e7cea7"/></linearGradient><linearGradient id="linear-gradient-6" x1="58.57" y1="86.74" x2="58.57" y2="239.7" gradientUnits="userSpaceOnUse"><stop offset="0" stop-color="#cec1a3" stop-opacity="0"/><stop offset="0.02" stop-color="#cebda1" stop-opacity="0.06"/><stop offset="0.11" stop-color="#d0b09a" stop-opacity="0.28"/><stop offset="0.21" stop-color="#d1a494" stop-opacity="0.47"/><stop offset="0.31" stop-color="#d29a8f" stop-opacity="0.64"/><stop offset="0.42" stop-color="#d3928a" stop-opacity="0.77"/><stop offset="0.53" stop-color="#d48c87" stop-opacity="0.87"/><stop offset="0.65" stop-color="#d58785" stop-opacity="0.94"/><stop offset="0.79" stop-color="#d58583" stop-opacity="0.99"/><stop offset="1" stop-color="#d58483"/></linearGradient><linearGradient id="linear-gradient-7" x1="138.79" y1="33.14" x2="138.79" y2="146.51" xlink:href="#linear-gradient"/><linearGradient id="linear-gradient-8" x1="158.31" y1="33.14" x2="158.31" y2="146.51" xlink:href="#linear-gradient"/><linearGradient id="linear-gradient-9" x1="176.65" y1="106.6" x2="176.65" y2="202.18" gradientUnits="userSpaceOnUse"><stop offset="0" stop-color="#cec1a3" stop-opacity="0"/><stop offset="0.08" stop-color="#d6c7a5" stop-opacity="0.2"/><stop offset="0.16" stop-color="#decda7" stop-opacity="0.38"/><stop offset="0.25" stop-color="#e5d2a8" stop-opacity="0.55"/><stop offset="0.35" stop-color="#ebd6aa" stop-opacity="0.69"/><stop offset="0.45" stop-color="#f0daab" stop-opacity="0.8"/><stop offset="0.55" stop-color="#f3ddac" stop-opacity="0.89"/><stop offset="0.67" stop-color="#f6dfad" stop-opacity="0.95"/><stop offset="0.8" stop-color="#f8e0ad" stop-opacity="0.99"/><stop offset="1" stop-color="#f8e0ad"/></linearGradient><linearGradient id="linear-gradient-10" x1="207.48" y1="59.56" x2="207.48" y2="162.88" gradientUnits="userSpaceOnUse"><stop offset="0" stop-color="#cec1a3" stop-opacity="0"/><stop offset="0.03" stop-color="#cfbda1" stop-opacity="0.07"/><stop offset="0.12" stop-color="#d1b09a" stop-opacity="0.28"/><stop offset="0.21" stop-color="#d4a494" stop-opacity="0.48"/><stop offset="0.31" stop-color="#d69a8f" stop-opacity="0.64"/><stop offset="0.41" stop-color="#d7928a" stop-opacity="0.77"/><stop offset="0.52" stop-color="#d88c87" stop-opacity="0.87"/><stop offset="0.64" stop-color="#d98785" stop-opacity="0.94"/><stop offset="0.78" stop-color="#da8583" stop-opacity="0.99"/><stop offset="0.97" stop-color="#da8483"/><stop offset="0.97" stop-color="#cb7a81"/><stop offset="0.98" stop-color="#b56c7e"/><stop offset="0.98" stop-color="#a6627c"/><stop offset="0.99" stop-color="#9d5c7a"/><stop offset="1" stop-color="#9a5a7a"/></linearGradient><linearGradient id="linear-gradient-11" x1="240.14" y1="83.46" x2="240.14" y2="167.03" xlink:href="#linear-gradient-5"/><linearGradient id="linear-gradient-12" x1="266.04" y1="65.44" x2="266.04" y2="156.47" xlink:href="#linear-gradient-5"/><linearGradient id="linear-gradient-13" x1="-49.08" y1="376.99" x2="87.68" y2="241.25" gradientTransform="matrix(0.49, -0.81, 0.71, 0.38, -127.23, 49.05)" gradientUnits="userSpaceOnUse"><stop offset="0" stop-color="#cec1a3"/><stop offset="0.1" stop-color="#c1a799"/><stop offset="0.24" stop-color="#b38b8e"/><stop offset="0.38" stop-color="#a87585"/><stop offset="0.55" stop-color="#a0667f"/><stop offset="0.73" stop-color="#9b5d7b"/><stop offset="1" stop-color="#9a5a7a"/></linearGradient><linearGradient id="linear-gradient-14" x1="166.3" y1="402.47" x2="166.3" y2="282.43" gradientTransform="matrix(0.99, -0.17, -0.15, -0.89, 64.16, 531.29)" gradientUnits="userSpaceOnUse"><stop offset="0" stop-color="#cec1a3"/><stop offset="0.19" stop-color="#e3d5b3"/><stop offset="0.41" stop-color="#f3e5bf"/><stop offset="0.66" stop-color="#fceec7"/><stop offset="1" stop-color="#fff1c9"/></linearGradient><linearGradient id="linear-gradient-15" x1="150.02" y1="252.66" x2="150.02" y2="90.01" gradientTransform="matrix(0.78, -0.63, 0.5, 0.66, -63.52, 155.35)" gradientUnits="userSpaceOnUse"><stop offset="0" stop-color="#fff2ca"/><stop offset="0.01" stop-color="#fdefc8"/><stop offset="0.11" stop-color="#e3c8b4"/><stop offset="0.22" stop-color="#cca6a2"/><stop offset="0.34" stop-color="#ba8a93"/><stop offset="0.46" stop-color="#ac7588"/><stop offset="0.6" stop-color="#a26680"/><stop offset="0.76" stop-color="#9c5d7b"/><stop offset="1" stop-color="#9a5a7a"/></linearGradient></defs><title>bird_falling</title><g id="fallingBird"><g id="motionBlur"><rect class="cls-1" x="73.75" y="33.14" width="5.22" height="113.37"/><rect class="cls-2" x="97.17" y="33.14" width="2.61" height="113.37"/><rect class="cls-3" x="112.35" y="45.69" width="8.24" height="100.82"/><rect class="cls-4" x="36.27" y="128.03" width="7.26" height="91.42"/><rect class="cls-5" x="283.65" y="64.73" width="2.61" height="92.45"/><rect class="cls-6" x="57.07" y="86.74" width="3" height="152.96"/><rect class="cls-7" x="136.18" y="33.14" width="5.22" height="113.37"/><rect class="cls-8" x="156.99" y="33.14" width="2.63" height="113.37"/><rect class="cls-9" x="174.04" y="106.6" width="5.22" height="95.57"/><rect class="cls-10" x="206.14" y="59.56" width="2.69" height="103.32"/><rect class="cls-11" x="236.02" y="83.46" width="8.24" height="83.57"/><rect class="cls-12" x="264.72" y="65.44" width="2.63" height="91.03"/></g><path id="backFeet" class="cls-13" d="M189.51,184.94l1.75-10s-5.81-5.34-6.38-18.68c-.56-13,.75-16.42,4.23-19.31s9.8-1,9.8-1-5.79,3.7-6.23,8.07c-.41,4.07-2,14.42.15,17.25a12.68,12.68,0,0,0,5.34,3.91s2.71-1.38,4-6.2-2.1-5.78-2.1-5.78,6.6.8,6.76,4,.38,12-3.95,15.82-5.91,4.6-5.91,4.6l-1.1,11.5Z"/><path id="backLeg" class="cls-14" d="M179.69,205.35a17.81,17.81,0,0,1,2.19-9.63,107.78,107.78,0,0,1,7.4-11.51l5.62.54s.45,9.61-2.41,14.52S179.69,205.35,179.69,205.35Z"/><path id="backWing" class="cls-15" d="M114.05,231.33c-16.23-6.77-40.71-41.45-43-47.48s-5.74-26.2-5.25-50.48,13.47-61,13.47-61S107.42,89.5,115.12,105c11.65,23.37,4.43,46.92,4.43,46.92s15.62,9.08,22.44,20.78c7,12.08,9.18,22.64,7.7,30S122.34,234.28,114.05,231.33Z"/><path id="body" class="cls-16" d="M62.37,235.58s2,40.4,73.92,25.48c55.76-11.57,53.08-34.34,70.18-43.18s79-54.93,79-54.93,7.41-7.48-3-17.49-34.82-13-34.82-13-27.92,62.91-38.31,63.85-38.3,4.58-62.41,5.94C122,203.7,55.43,195.18,62.37,235.58Z"/><path id="frontFeet" class="cls-17" d="M198.63,183l1.22-10.13s-6.09-5-7.37-18.32c-1.24-12.94-.12-16.44,3.2-19.51s9.73-1.51,9.73-1.51-5.59,4-5.79,8.39c-.19,4.09-1.26,14.51,1.07,17.22a12.68,12.68,0,0,0,5.54,3.62s2.63-1.52,3.71-6.4-2.41-5.66-2.41-5.66,6.64.44,7,3.59,1,11.94-3.1,16-5.65,4.9-5.65,4.9l-.48,11.54Z"/><path id="frontLeg" class="cls-18" d="M192,199.67s-2-.15.26-6.41a106.52,106.52,0,0,1,6.61-13.85l6.94.3s1.55,13.91-.91,19.81S192,199.67,192,199.67Z"/><path id="head" class="cls-19" d="M84.8,260.65c6.73,2.78,23.56,6.31,33.65-19.47s-8.7-38.75-8.7-38.75-9-2.37-35.64-5c-12.52-1.21-33,2-37.21,16.5C31.61,232.11,78.07,257.87,84.8,260.65Z"/><path id="frontWing" class="cls-20" d="M121.86,248.8c-13.53-13.32-25.27-56.59-25.43-63.3s3.64-27.26,12.71-50,34.76-52,34.76-52,21.61,28.18,23.7,46.09a67.12,67.12,0,0,1-12.25,46.32s12.11,15.25,14.66,29.24c2.63,14.44,1,25.35-3.06,31.7S128.95,255.12,121.86,248.8Z"/><path id="beakLow" class="cls-21" d="M48.45,205.94l5.87-1.88a17.26,17.26,0,0,1,.84-7.92c1.48-3.76,2.46-3.18,2.46-3.18s-5-.43-6.89,2.94S48.45,205.94,48.45,205.94Z"/><path id="beak" class="cls-22" d="M54.32,204.06s.46,2.87-3.85,5.23-7.58.12-9.3-2.51a12.84,12.84,0,0,1-1.06-13.33c2.91-6,14.63-1.88,14.63-1.88s-11.15.24-5.79,6.36Z"/><g id="eye"><circle id="eye-2" data-name="eye" cx="49.24" cy="219.45" r="5.84" transform="translate(-36.46 11.51) rotate(-9.75)"/><circle id="eyeShine" class="cls-23" cx="47.7" cy="217.84" r="1.85" transform="translate(-36.21 11.23) rotate(-9.75)"/></g><polygon class="cls-19" points="42.33 213.61 55.08 229.35 42.33 225.29 42.33 213.61"/></g></svg>