<svg xmlns="http://www.w3.org/2000/svg" viewBox="0 0 300 300"><defs><style>.cls-1{fill:#b59767;}.cls-2{fill:#e2b985;}.cls-3{fill:#a11d28;}.cls-4{fill:#c93131;}.cls-5{fill:#5c4a37;}</style></defs><title>boomerang</title><g id="boomerang"><g id="boomerang-2" data-name="boomerang"><path class="cls-1" d="M287.32,243.67C285.82,220,103.41,222.82,89.15,165,79,123.94,93.5,64.49,78.39,44,66.6,28.11,21.52,109.74,45.23,183.26,70.66,262.1,289.2,273.3,287.32,243.67Z"/><path class="cls-2" d="M287.32,243.67c-1.13-13.14-59.12-18.92-112.48-31.5-42-9.91-81.19-24-87.41-49.33C77.39,122.06,89,58.12,77,42.72c-10.2-13-58,65.71-33.45,138.34C54.83,214.6,108.09,234.93,162,245,224.71,256.84,288.28,254.79,287.32,243.67Z"/></g><g id="boomerang-3" data-name="boomerang"><path class="cls-3" d="M183,248.5l-.13,6.57a358,358,0,0,1-56.71-12.43l-.19-6v-.06c11.65,3.38,23.81,6.19,36,8.48C169,246.37,176,247.52,183,248.5Z"/><path class="cls-4" d="M191.7,215.92s-.21.28-.57.84a42.79,42.79,0,0,0-4.66,10.76c-2.28,7.72-3.49,21-3.49,21-7-1-14-2.13-21-3.45-12.19-2.29-24.35-5.1-36-8.48-.06-.72-.52-7.88,2.35-17.91,2.64-9.21,5.64-14.5,7-16.59.47-.72.74-1.06.74-1.06a356.76,356.76,0,0,0,38.81,11.16C180.43,213.49,186.08,214.73,191.7,215.92Z"/></g><path class="cls-5" d="M196.69,217s-.18.28-.48.82a58.6,58.6,0,0,0-4.58,10.64c-2.34,7.18-3.31,20.81-3.31,20.81v6.58l-3.09-.41-2.38-.31h0l.13-6.57s1.21-13.26,3.49-21a42.79,42.79,0,0,1,4.66-10.76c.36-.56.57-.84.57-.84l.9.19Z"/><path class="cls-5" d="M136,201s-.27.34-.74,1.06c-1.35,2.09-4.35,7.38-7,16.59-2.87,10-2.41,17.19-2.35,17.91v.06l.19,6-.24-.08-4.6-1.5-.31-6v0a57.07,57.07,0,0,1,2.48-17.37,77.82,77.82,0,0,1,7.32-17.32c.4-.68.63-1,.63-1l2.32.85Z"/></g></svg>