<svg id="Layer_1" data-name="Layer 1" xmlns="http://www.w3.org/2000/svg" viewBox="0 0 550 200"><defs><style>.cls-1{fill:none;}.cls-2,.cls-5{opacity:0.5;}.cls-2,.cls-3,.cls-4,.cls-5,.cls-6,.cls-7,.cls-8{isolation:isolate;}.cls-3,.cls-4,.cls-5,.cls-7,.cls-8{font-size:90px;font-family:DINAlternate-Bold, DIN Alternate;font-weight:700;}.cls-3{fill:#418ab7;}.cls-12,.cls-4{fill:#c93131;}.cls-5,.cls-8{fill:#d86464;}.cls-7{fill:#50aedd;}.cls-9{fill:#b59767;}.cls-10{fill:#e2b985;}.cls-11{fill:#a11d28;}.cls-13{fill:#5c4a37;}.cls-14{fill:#156392;}.cls-15{fill:#1c79be;}</style></defs><title>logo_wide</title><g id="logo"><rect class="cls-1" x="11.87" y="93.03" width="235.19" height="74.1" transform="translate(-14.43 16.17) rotate(-6.77)"/><g class="cls-2"><text class="cls-3" transform="matrix(0.99, -0.11, 0.11, 0.99, 15.77, 169.89)">BOOM</text><text class="cls-4" transform="matrix(0.99, -0.11, 0.11, 0.99, 247.15, 143.34)"><tspan xml:space="preserve">       </tspan></text></g><rect class="cls-1" x="330.46" y="43.34" width="230.39" height="74.1" transform="translate(-6.37 53.11) rotate(-6.77)"/><text class="cls-5" transform="translate(334.49 120.79) rotate(-6.77)">SYNC</text><rect class="cls-1" x="9.46" y="95.53" width="235.19" height="74.1" transform="translate(-14.75 15.91) rotate(-6.77)"/><g class="cls-6"><text class="cls-7" transform="matrix(0.99, -0.11, 0.11, 0.99, 13.37, 172.42)">BOOM</text><text class="cls-4" transform="matrix(0.99, -0.11, 0.11, 0.99, 244.76, 145.87)"><tspan xml:space="preserve">       </tspan></text></g><rect class="cls-1" x="328.36" y="39.84" width="230.39" height="74.1" transform="translate(-5.97 52.83) rotate(-6.77)"/><text class="cls-8" transform="translate(332.39 117.33) rotate(-6.77)">SYNC</text><g id="boomerang"><path class="cls-9" d="M190.07,173.64c-3.2-11.6,106.4-15.5,104.9-44.2-1.1-20.4-20.1-49-14.6-59.4,4.3-8.1,45.5,30.4,44.1,67C323,176.34,194.17,188.24,190.07,173.64Z"/><path class="cls-10" d="M190.07,173.64c-1.6-6.4,32.1-11,61.8-18.7,23.4-6.1,44.4-14.1,43.7-26.6-1.1-20.2-19.2-51.1-14.7-59,3.8-6.7,46.2,30.4,44.1,66.6-.9,16.7-29.3,28.2-59.7,34.7C229.87,178.24,191.47,179.14,190.07,173.64Z"/></g><g id="boomerang-2" data-name="boomerang"><path class="cls-11" d="M253.37,173l1.2,3.2a211,211,0,0,0,31.8-7.7l-.9-2.9h0c-6.4,2-13.2,3.7-20.1,5.2C261.37,171.54,257.37,172.34,253.37,173Z"/><path class="cls-12" d="M242.47,157.34a2.22,2.22,0,0,1,.5.4,31.94,31.94,0,0,1,4.7,5.1,77,77,0,0,1,5.7,10.1c4-.7,8-1.4,12-2.3,6.9-1.5,13.7-3.2,20.1-5.2a29.33,29.33,0,0,0-4.5-8.7,44.5,44.5,0,0,0-7.1-7.9,6.12,6.12,0,0,1-.6-.5,199,199,0,0,1-21.3,6.6C248.87,155.84,245.67,156.64,242.47,157.34Z"/></g><path class="cls-13" d="M239.67,157.94a1.2,1.2,0,0,1,.4.4,38.89,38.89,0,0,1,4.6,5.1c2.7,3.4,5.6,10.1,5.6,10.1l1.1,3.2,1.8-.3,1.4-.2h0l-1.2-3.2a77,77,0,0,0-5.7-10.1,27.77,27.77,0,0,0-4.7-5.1,1.73,1.73,0,0,0-.5-.5l-.5.1A15.53,15.53,0,0,1,239.67,157.94Z"/><path class="cls-13" d="M273.27,148.44a6.12,6.12,0,0,0,.6.5,44.5,44.5,0,0,1,7.1,7.9,26.68,26.68,0,0,1,4.5,8.7h0l.9,2.9h.1l2.5-.9-.9-2.9h0a29.29,29.29,0,0,0-4.5-8.4,51.7,51.7,0,0,0-7.4-8.2,6.12,6.12,0,0,1-.6-.5l-1.2.5Z"/><g id="boomerang-3" data-name="boomerang"><path class="cls-9" d="M354.27,24c3.3,14-85.8,18.4-82.9,53,2.1,24.6,9.9,39.2,6.1,51.8-3,9.8-29.5-16.9-30.5-61.1C245.77,20.44,350.07,6.54,354.27,24Z"/><path class="cls-10" d="M354.27,24c1.7,7.8-25.5,13.1-49.3,22.3-18.7,7.3-35.4,16.9-34.1,32,2.1,24.4,9.3,41.8,6,51.3-2.7,8-30.1-16.9-30.5-60.5-.2-20.2,22.2-34,46.7-41.7C321.57,18.34,352.77,17.44,354.27,24Z"/></g><g id="boomerang-4" data-name="boomerang"><path class="cls-14" d="M302.67,24.64l-1.2-3.9a125.81,125.81,0,0,0-25.4,9.2l.9,3.6h0a134.28,134.28,0,0,1,16.1-6.2Z"/><path class="cls-15" d="M312.47,43.64a2.22,2.22,0,0,0-.4-.5,42.27,42.27,0,0,1-4.1-6.2,129.89,129.89,0,0,1-5.3-12.3q-4.8,1.2-9.6,2.7a141.12,141.12,0,0,0-16.1,6.2,45.84,45.84,0,0,0,4.2,10.5,56.13,56.13,0,0,0,6.2,9.6,2.83,2.83,0,0,1,.5.6,134,134,0,0,1,17-7.9C307.47,45.44,310,44.54,312.47,43.64Z"/></g><path class="cls-13" d="M314.77,42.84a2.22,2.22,0,0,0-.4-.5,45.11,45.11,0,0,1-4-6.1C308,32,305.27,24,305.27,24l-1.1-3.9-1.4.3-1.1.3h0l1.2,3.9a106.63,106.63,0,0,0,5.3,12.3,42.28,42.28,0,0,0,4.1,6.2,2.22,2.22,0,0,1,.4.5l.4-.1A6.69,6.69,0,0,1,314.77,42.84Z"/><path class="cls-13" d="M288,54.24a6.12,6.12,0,0,1-.5-.6,52,52,0,0,1-6.2-9.6,45.84,45.84,0,0,1-4.2-10.5h0l-.9-3.6-.1.1-2,1,.9,3.5h0a45.4,45.4,0,0,0,4.2,10.2,72,72,0,0,0,6.5,10,6.12,6.12,0,0,0,.5.6l1-.6Z"/></g></svg>